# xmcd
#
# Track frame offsets:
# 150
# 30187
# 47787
# 68637
# 83319
# 102544
# 121048
# 138216
# 159396
#
# Disc length: 2473 seconds
#
#
# Revision: 0
# Processed by: cddbd v1.4PL0 Copyright (c) Steve Scherf et al.
# Submitted via: FreeRIP 2.30 
#
DISCID=5f09a709
DTITLE=Johnny Dixon - South Of Country
DYEAR=1900
DGENRE=Country
TTITLE0=I Don't Understand
TTITLE1=Viking Story
TTITLE2=Lonely Street
TTITLE3=Where I belong
TTITLE4=The Fame of Your Deeds
TTITLE5=Something About the West
TTITLE6=Watch the World go by
TTITLE7=Sunday Morning Train
TTITLE8=You'd Better Beware
EXTD=
EXTT0=
EXTT1=
EXTT2=
EXTT3=
EXTT4=
EXTT5=
EXTT6=
EXTT7=
EXTT8=
PLAYORDER=
